<svg width="121" height="48" viewBox="0 0 121 48" fill="none" xmlns="http://www.w3.org/2000/svg" class="w-30"><path d="M17.7188 15.2242C18.574 13.7771 19.8107 12.593 21.1787 11.6064C23.7704 9.76462 27.1253 8.84359 30.3092 9.31737C32.1905 9.58053 34.0323 10.3042 35.5454 11.3698L35.4929 11.4881C32.9407 10.8435 30.454 10.4355 27.8885 10.7514C24.9941 11.0804 22.2446 12.2908 19.7974 13.8825C19.1266 14.3167 18.4687 14.7902 17.8241 15.2903L17.7188 15.2242Z" fill="#383D43"></path><path d="M18.7583 10.6721C20.2844 7.56735 23.5603 5.51493 26.9415 5.01488C28.6517 4.77799 30.4014 4.88331 32.0724 5.34383C33.7168 5.77808 35.2692 6.48848 36.6375 7.44877L36.5849 7.56707C33.9537 6.8962 31.4278 6.34364 28.757 6.43568C25.0469 6.56726 21.5736 8.15917 18.8636 10.7509C18.8769 10.7379 18.7583 10.6721 18.7583 10.6721Z" fill="#959DAC"></path><path d="M13.0356 24.8282C12.2989 23.3416 11.9437 21.6839 11.8121 20.0394C11.4702 16.0532 12.8515 11.8038 15.9562 9.1858C16.7457 8.51493 17.6402 7.94909 18.5875 7.52811L18.6665 7.63342C15.0352 11.1064 13.338 15.0398 13.1013 20.0129C13.0093 21.5786 13.0488 23.1572 13.1804 24.7754L13.0356 24.8282Z" fill="#383D43"></path><path d="M9.66762 21.7627C8.75986 20.3944 8.3256 18.7762 8.19402 17.1448C7.91788 13.8556 9.19383 10.4615 11.4174 8.04086C12.5092 6.83042 13.7855 5.80435 15.2063 5.06769L15.2853 5.17301C14.246 6.38345 13.2592 7.56736 12.4042 8.83032C9.77294 12.5797 8.82565 17.2108 9.78621 21.7101C9.78593 21.6969 9.66762 21.7627 9.66762 21.7627Z" fill="#959DAC"></path><path d="M27.6124 15.29C29.2701 15.1322 30.9408 15.4083 32.5197 15.8688C36.3614 16.9872 39.8343 19.8026 41.1501 23.644C41.492 24.6175 41.7026 25.6569 41.7552 26.6962L41.6236 26.7357C39.6898 22.0916 36.6242 19.1051 32.0722 17.0922C30.6381 16.4476 29.1515 15.9083 27.5991 15.4478L27.6124 15.29Z" fill="#383D43"></path><path d="M31.6912 13.2508C33.2961 12.8956 34.9538 13.0797 36.5327 13.5403C39.7033 14.4613 42.4136 16.8819 43.8606 19.8288C44.5973 21.2891 45.0973 22.8415 45.2684 24.4334L45.1369 24.473C44.3869 23.0651 43.637 21.7234 42.7555 20.4734C40.2033 16.6713 36.23 14.1191 31.6782 13.3954C31.7042 13.3824 31.6912 13.2508 31.6912 13.2508Z" fill="#959DAC"></path><path d="M34.072 23.4599C34.8744 24.9069 35.3087 26.5516 35.506 28.1828C36.0324 32.1561 34.8482 36.458 31.8617 39.2075C31.0985 39.9179 30.2303 40.523 29.3095 40.9835L29.2305 40.8782C32.7037 37.2472 34.2165 33.2346 34.2298 28.2616C34.2561 26.6959 34.1378 25.1173 33.9404 23.5121L34.072 23.4599Z" fill="#383D43"></path><path d="M37.585 26.3672C38.5585 27.696 39.0586 29.2879 39.2689 30.9193C39.6899 34.1952 38.5715 37.6422 36.4666 40.1548C35.4272 41.4178 34.2038 42.4967 32.8222 43.2991L32.7432 43.1938C33.73 41.9308 34.664 40.7074 35.4532 39.4049C37.9133 35.5369 38.65 30.8665 37.4794 26.4198C37.4666 26.4463 37.585 26.3672 37.585 26.3672Z" fill="#959DAC"></path><path d="M30.5463 30.801C29.8754 32.3272 28.8361 33.6559 27.6651 34.8136C24.8235 37.6422 20.6792 39.3129 16.6799 38.6157C15.6538 38.4446 14.6538 38.1157 13.7197 37.6684L13.746 37.5369C18.7453 38.0894 22.8499 36.866 26.8099 33.8533C28.0729 32.9193 29.257 31.8799 30.4147 30.7353L30.5463 30.801Z" fill="#383D43"></path><path d="M30.3623 35.3529C29.9018 36.9315 28.9415 38.2998 27.7706 39.4444C25.4288 41.773 22.0083 42.9702 18.7192 42.8256C17.0878 42.7598 15.4829 42.4442 14.0093 41.8258L14.0355 41.6942C15.6274 41.7075 17.1665 41.7075 18.6927 41.5494C23.2577 41.1547 27.4151 38.9051 30.2437 35.2871C30.2307 35.3133 30.3623 35.3529 30.3623 35.3529Z" fill="#959DAC"></path><path d="M18.6663 33.5373C17.0086 33.419 15.4037 32.8794 13.9168 32.1561C10.312 30.4326 7.35182 27.0779 6.66768 23.0784C6.48359 22.0523 6.45733 20.9997 6.57563 19.9737L6.70721 19.9604C7.85187 24.8544 10.3908 28.3144 14.5482 31.0379C15.8506 31.9062 17.2319 32.6824 18.6922 33.3798L18.6663 33.5373Z" fill="#383D43"></path><path d="M14.3247 34.8924C12.6803 34.9844 11.0751 34.5372 9.60179 33.8135C6.62861 32.3794 4.35257 29.5641 3.392 26.4198C2.90523 24.8674 2.66833 23.2492 2.74739 21.6441L2.87897 21.6308C3.392 23.1436 3.91831 24.591 4.56292 25.9723C6.45751 30.1426 9.96998 33.3134 14.338 34.7605C14.3247 34.7611 14.3247 34.8924 14.3247 34.8924Z" fill="#959DAC"></path><path d="M62.624 33L56.48 16.992H58.328L63.872 31.536H63.248L68.696 17.04L70.472 16.992L64.328 33H62.624ZM76.6218 33.36C75.4858 33.36 74.5018 33.128 73.6698 32.664C72.8378 32.184 72.1978 31.472 71.7498 30.528C71.3018 29.584 71.0778 28.408 71.0778 27C71.0778 24.936 71.5418 23.392 72.4698 22.368C73.4138 21.328 74.7018 20.808 76.3338 20.808C77.6138 20.808 78.6378 21.096 79.4058 21.672C80.1898 22.248 80.7498 23.024 81.0858 24C81.4218 24.976 81.5818 26.08 81.5658 27.312H71.9418L72.0618 25.728H80.4378L79.7658 25.968C79.7178 24.768 79.4138 23.872 78.8538 23.28C78.3098 22.688 77.4698 22.392 76.3338 22.392C75.5498 22.392 74.8938 22.536 74.3658 22.824C73.8538 23.112 73.4698 23.616 73.2138 24.336C72.9578 25.04 72.8298 26.032 72.8298 27.312C72.8298 28.768 73.1658 29.88 73.8378 30.648C74.5258 31.4 75.4858 31.776 76.7178 31.776C77.3098 31.776 77.8538 31.736 78.3498 31.656C78.8458 31.56 79.3018 31.432 79.7178 31.272C80.1338 31.112 80.5018 30.936 80.8218 30.744V32.52C80.2458 32.792 79.6058 33 78.9018 33.144C78.2138 33.288 77.4538 33.36 76.6218 33.36ZM84.8028 21.984C85.1868 21.792 85.5788 21.624 85.9788 21.48C86.3948 21.32 86.8108 21.192 87.2268 21.096C87.6588 21 88.0908 20.928 88.5228 20.88C88.9708 20.832 89.4188 20.808 89.8668 20.808C91.0348 20.808 91.9628 20.984 92.6508 21.336C93.3388 21.672 93.8348 22.168 94.1388 22.824C94.4588 23.48 94.6188 24.272 94.6188 25.2V33H92.8908V25.2C92.8908 24.912 92.8508 24.608 92.7708 24.288C92.7068 23.968 92.5708 23.664 92.3628 23.376C92.1548 23.072 91.8348 22.832 91.4028 22.656C90.9708 22.464 90.3948 22.368 89.6748 22.368C89.1788 22.368 88.6668 22.408 88.1388 22.488C87.6108 22.568 87.0748 22.688 86.5308 22.848V33H84.8028V21.984ZM102.235 33.192C101.387 33.192 100.675 32.936 100.099 32.424C99.5229 31.896 99.2349 31.12 99.2349 30.096V22.608H97.1469V21.024H99.2349V17.64H100.963V21.024H104.059V22.608H100.963V29.544C100.963 30.216 101.067 30.72 101.275 31.056C101.483 31.392 101.907 31.56 102.547 31.56C102.835 31.56 103.115 31.536 103.387 31.488C103.659 31.424 103.883 31.352 104.059 31.272V32.904C103.835 32.984 103.547 33.048 103.195 33.096C102.859 33.16 102.539 33.192 102.235 33.192ZM112.106 33.36C110.234 33.36 108.842 32.808 107.93 31.704C107.034 30.584 106.586 29.032 106.586 27.048C106.586 24.968 107.058 23.408 108.002 22.368C108.962 21.328 110.314 20.808 112.058 20.808C113.354 20.808 114.41 21.072 115.226 21.6C116.042 22.112 116.642 22.84 117.026 23.784C117.41 24.712 117.602 25.8 117.602 27.048C117.602 29.016 117.122 30.56 116.162 31.68C115.218 32.8 113.866 33.36 112.106 33.36ZM112.082 31.776C113.058 31.776 113.818 31.568 114.362 31.152C114.906 30.72 115.29 30.152 115.514 29.448C115.754 28.728 115.874 27.928 115.874 27.048C115.874 26.104 115.754 25.288 115.514 24.6C115.274 23.896 114.874 23.352 114.314 22.968C113.77 22.584 113.026 22.392 112.082 22.392C111.122 22.392 110.37 22.6 109.826 23.016C109.282 23.432 108.89 23.992 108.65 24.696C108.426 25.384 108.314 26.168 108.314 27.048C108.314 28.456 108.594 29.6 109.154 30.48C109.714 31.344 110.69 31.776 112.082 31.776Z" fill="#F8F9FA"></path></svg>